<?xml version="1.0" standalone="no"?><svg xmlns="http://www.w3.org/2000/svg" viewBox="0 0 1440 320"><path fill="#f3a30f" fill-opacity="1" d="M0,96L34.3,117.3C68.6,139,137,181,206,165.3C274.3,149,343,75,411,48C480,21,549,43,617,74.7C685.7,107,754,149,823,170.7C891.4,192,960,192,1029,170.7C1097.1,149,1166,107,1234,85.3C1302.9,64,1371,64,1406,64L1440,64L1440,320L1405.7,320C1371.4,320,1303,320,1234,320C1165.7,320,1097,320,1029,320C960,320,891,320,823,320C754.3,320,686,320,617,320C548.6,320,480,320,411,320C342.9,320,274,320,206,320C137.1,320,69,320,34,320L0,320Z"></path></svg>